<?xml version="1.0" encoding="UTF-8" standalone="no"?>
<!DOCTYPE svg PUBLIC "-//W3C//DTD SVG 1.1//EN" "http://www.w3.org/Graphics/SVG/1.1/DTD/svg11.dtd">
<svg width="100%" height="100%" viewBox="0 0 2000 2000" version="1.1" xmlns="http://www.w3.org/2000/svg" xmlns:xlink="http://www.w3.org/1999/xlink" xml:space="preserve" xmlns:serif="http://www.serif.com/" style="fill-rule:evenodd;clip-rule:evenodd;stroke-linecap:round;stroke-linejoin:round;stroke-miterlimit:1.5;">
    <g transform="matrix(1.09957,0,0,1.09957,-98.7828,-89.1578)">
        <path d="M992.74,162.408C688.331,164.147 466.484,258.393 366.074,403.405C241.878,582.768 254.833,834.173 446.42,1187.76C675.262,1610.11 889.749,1820.39 1004.96,1818.65C1106.85,1817.12 1276,1657.65 1490.52,1306.19C1681.38,993.513 1794.48,640.963 1643.2,418.383C1505.8,216.22 1208.12,161.178 992.74,162.408Z" style="fill:none;stroke:rgb(161,0,1);stroke-width:30.31px;"/>
    </g>
    <g transform="matrix(0.916348,0,0,0.944062,88.8148,63.7837)">
        <path d="M992.74,133.29C688.331,135.029 450.196,223.061 346.875,366.134C211.164,554.058 264.433,833.008 456.02,1186.6C684.861,1608.94 914.81,1824.17 998.159,1822.15C1090.81,1819.9 1240.89,1649.84 1464.12,1306.19C1663.83,998.767 1805.28,607.186 1654,384.606C1516.6,182.443 1208.12,132.059 992.74,133.29Z" style="fill:white;stroke:black;stroke-width:8.96px;"/>
    </g>
    <g transform="matrix(1.09957,0,0,1.09957,-90.0836,-117.193)">
        <path d="M629.218,437.989L776.481,437.649L999.444,694.665L1217.73,436.979L1351.28,436.664L1351.46,831.232L1223.12,831.901L1222.71,645.853L998.761,872.829L799.971,647.596L802.682,1149.53L997.659,1361.75L1223.85,1079.03L1223.53,1022.04L1157.32,1021.73L1081.33,1105.13L1080.5,1038.26L998.462,1038.35L1149.64,883.626L1350.63,883.549L1353.52,1147.94L997.499,1595.38L669.199,1188.7L664.89,494.251L629.218,437.989Z" style="stroke:rgb(161,0,1);stroke-width:7.58px;"/>
    </g>
</svg>
